<mxfile host="app.diagrams.net" modified="2023-10-30T17:02:30.604Z" agent="Mozilla/5.0 (Macintosh; Intel Mac OS X 10.15; rv:109.0) Gecko/20100101 Firefox/115.0" etag="2__TF4sC6qwQamt638Rn" version="22.0.8" type="device">
  <diagram id="HWiOuVzCYD7Ldl65GgFN" name="Page-1">
    <mxGraphModel dx="3292" dy="1122" grid="1" gridSize="10" guides="1" tooltips="1" connect="1" arrows="1" fold="1" page="1" pageScale="1" pageWidth="1654" pageHeight="1169" math="0" shadow="0">
      <root>
        <mxCell id="0" />
        <mxCell id="1" parent="0" />
        <mxCell id="w-TVoxVjeNT14pDyaGlz-32" value="AWS Step Functions workflow" style="sketch=0;outlineConnect=0;gradientColor=none;html=1;whiteSpace=wrap;fontSize=12;fontStyle=0;shape=mxgraph.aws4.group;grIcon=mxgraph.aws4.group_aws_step_functions_workflow;strokeColor=#545B64;fillColor=none;verticalAlign=top;align=left;spacingLeft=30;fontColor=#545B64;dashed=0;" parent="1" vertex="1">
          <mxGeometry x="-530" y="80" width="520" height="640" as="geometry" />
        </mxCell>
        <mxCell id="w-TVoxVjeNT14pDyaGlz-48" value="Audio" style="fillColor=none;strokeColor=#5A6C86;dashed=1;verticalAlign=top;fontStyle=0;fontColor=#5A6C86;" parent="1" vertex="1">
          <mxGeometry x="-520" y="220" width="220" height="380" as="geometry" />
        </mxCell>
        <mxCell id="w-TVoxVjeNT14pDyaGlz-1" value="&lt;b&gt;Amazon CloudFront&lt;/b&gt;&lt;br&gt;Origin SPA" style="sketch=0;points=[[0,0,0],[0.25,0,0],[0.5,0,0],[0.75,0,0],[1,0,0],[0,1,0],[0.25,1,0],[0.5,1,0],[0.75,1,0],[1,1,0],[0,0.25,0],[0,0.5,0],[0,0.75,0],[1,0.25,0],[1,0.5,0],[1,0.75,0]];outlineConnect=0;fontColor=#232F3E;gradientColor=#945DF2;gradientDirection=north;fillColor=#5A30B5;strokeColor=#ffffff;dashed=0;verticalLabelPosition=bottom;verticalAlign=top;align=center;html=1;fontSize=12;fontStyle=0;aspect=fixed;shape=mxgraph.aws4.resourceIcon;resIcon=mxgraph.aws4.cloudfront;" parent="1" vertex="1">
          <mxGeometry x="-1230" y="10" width="78" height="78" as="geometry" />
        </mxCell>
        <mxCell id="w-TVoxVjeNT14pDyaGlz-4" value="&lt;b&gt;Amazon S3&lt;/b&gt;&lt;br&gt;SPA" style="sketch=0;points=[[0,0,0],[0.25,0,0],[0.5,0,0],[0.75,0,0],[1,0,0],[0,1,0],[0.25,1,0],[0.5,1,0],[0.75,1,0],[1,1,0],[0,0.25,0],[0,0.5,0],[0,0.75,0],[1,0.25,0],[1,0.5,0],[1,0.75,0]];outlineConnect=0;fontColor=#232F3E;gradientColor=#60A337;gradientDirection=north;fillColor=#277116;strokeColor=#ffffff;dashed=0;verticalLabelPosition=bottom;verticalAlign=top;align=center;html=1;fontSize=12;fontStyle=0;aspect=fixed;shape=mxgraph.aws4.resourceIcon;resIcon=mxgraph.aws4.s3;" parent="1" vertex="1">
          <mxGeometry x="-970" y="10" width="78" height="78" as="geometry" />
        </mxCell>
        <mxCell id="w-TVoxVjeNT14pDyaGlz-5" value="&lt;b&gt;Amazon API Gateway&lt;/b&gt;" style="sketch=0;points=[[0,0,0],[0.25,0,0],[0.5,0,0],[0.75,0,0],[1,0,0],[0,1,0],[0.25,1,0],[0.5,1,0],[0.75,1,0],[1,1,0],[0,0.25,0],[0,0.5,0],[0,0.75,0],[1,0.25,0],[1,0.5,0],[1,0.75,0]];outlineConnect=0;fontColor=#232F3E;gradientColor=#FF4F8B;gradientDirection=north;fillColor=#BC1356;strokeColor=#ffffff;dashed=0;verticalLabelPosition=bottom;verticalAlign=top;align=center;html=1;fontSize=12;fontStyle=0;aspect=fixed;shape=mxgraph.aws4.resourceIcon;resIcon=mxgraph.aws4.api_gateway;" parent="1" vertex="1">
          <mxGeometry x="-1230" y="440" width="78" height="78" as="geometry" />
        </mxCell>
        <mxCell id="w-TVoxVjeNT14pDyaGlz-6" value="&lt;b&gt;Amazon DynamoDB&lt;/b&gt;&lt;br&gt;Records table" style="sketch=0;points=[[0,0,0],[0.25,0,0],[0.5,0,0],[0.75,0,0],[1,0,0],[0,1,0],[0.25,1,0],[0.5,1,0],[0.75,1,0],[1,1,0],[0,0.25,0],[0,0.5,0],[0,0.75,0],[1,0.25,0],[1,0.5,0],[1,0.75,0]];outlineConnect=0;fontColor=#232F3E;gradientColor=#4D72F3;gradientDirection=north;fillColor=#3334B9;strokeColor=#ffffff;dashed=0;verticalLabelPosition=bottom;verticalAlign=top;align=center;html=1;fontSize=12;fontStyle=0;aspect=fixed;shape=mxgraph.aws4.resourceIcon;resIcon=mxgraph.aws4.dynamodb;" parent="1" vertex="1">
          <mxGeometry x="-690" y="530" width="78" height="78" as="geometry" />
        </mxCell>
        <mxCell id="w-TVoxVjeNT14pDyaGlz-8" value="&lt;b&gt;AWS Lambda&lt;/b&gt;&lt;br&gt;Generate pre-sign url for upload" style="sketch=0;points=[[0,0,0],[0.25,0,0],[0.5,0,0],[0.75,0,0],[1,0,0],[0,1,0],[0.25,1,0],[0.5,1,0],[0.75,1,0],[1,1,0],[0,0.25,0],[0,0.5,0],[0,0.75,0],[1,0.25,0],[1,0.5,0],[1,0.75,0]];outlineConnect=0;fontColor=#232F3E;gradientColor=#F78E04;gradientDirection=north;fillColor=#D05C17;strokeColor=#ffffff;dashed=0;verticalLabelPosition=bottom;verticalAlign=top;align=center;html=1;fontSize=12;fontStyle=0;aspect=fixed;shape=mxgraph.aws4.resourceIcon;resIcon=mxgraph.aws4.lambda;" parent="1" vertex="1">
          <mxGeometry x="-970" y="350" width="78" height="78" as="geometry" />
        </mxCell>
        <mxCell id="w-TVoxVjeNT14pDyaGlz-9" value="&lt;b&gt;Amazon S3&lt;/b&gt;&lt;br&gt;Media" style="sketch=0;points=[[0,0,0],[0.25,0,0],[0.5,0,0],[0.75,0,0],[1,0,0],[0,1,0],[0.25,1,0],[0.5,1,0],[0.75,1,0],[1,1,0],[0,0.25,0],[0,0.5,0],[0,0.75,0],[1,0.25,0],[1,0.5,0],[1,0.75,0]];outlineConnect=0;fontColor=#232F3E;gradientColor=#60A337;gradientDirection=north;fillColor=#277116;strokeColor=#ffffff;dashed=0;verticalLabelPosition=bottom;verticalAlign=top;align=center;html=1;fontSize=12;fontStyle=0;aspect=fixed;shape=mxgraph.aws4.resourceIcon;resIcon=mxgraph.aws4.s3;" parent="1" vertex="1">
          <mxGeometry x="-800" y="350" width="78" height="78" as="geometry" />
        </mxCell>
        <mxCell id="w-TVoxVjeNT14pDyaGlz-11" value="&lt;b&gt;AWS Lambda&lt;/b&gt;&lt;br&gt;List records" style="sketch=0;points=[[0,0,0],[0.25,0,0],[0.5,0,0],[0.75,0,0],[1,0,0],[0,1,0],[0.25,1,0],[0.5,1,0],[0.75,1,0],[1,1,0],[0,0.25,0],[0,0.5,0],[0,0.75,0],[1,0.25,0],[1,0.5,0],[1,0.75,0]];outlineConnect=0;fontColor=#232F3E;gradientColor=#F78E04;gradientDirection=north;fillColor=#D05C17;strokeColor=#ffffff;dashed=0;verticalLabelPosition=bottom;verticalAlign=top;align=center;html=1;fontSize=12;fontStyle=0;aspect=fixed;shape=mxgraph.aws4.resourceIcon;resIcon=mxgraph.aws4.lambda;" parent="1" vertex="1">
          <mxGeometry x="-970" y="530" width="78" height="78" as="geometry" />
        </mxCell>
        <mxCell id="w-TVoxVjeNT14pDyaGlz-14" value="" style="edgeStyle=orthogonalEdgeStyle;html=1;endArrow=block;elbow=vertical;startArrow=none;endFill=1;strokeColor=#545B64;rounded=0;" parent="1" source="w-TVoxVjeNT14pDyaGlz-1" target="w-TVoxVjeNT14pDyaGlz-4" edge="1">
          <mxGeometry width="100" relative="1" as="geometry">
            <mxPoint x="-1140" y="40" as="sourcePoint" />
            <mxPoint x="-1040" y="40" as="targetPoint" />
          </mxGeometry>
        </mxCell>
        <mxCell id="w-TVoxVjeNT14pDyaGlz-17" value="Client" style="sketch=0;outlineConnect=0;fontColor=#232F3E;gradientColor=none;fillColor=#232F3D;strokeColor=none;dashed=0;verticalLabelPosition=bottom;verticalAlign=top;align=center;html=1;fontSize=12;fontStyle=0;aspect=fixed;pointerEvents=1;shape=mxgraph.aws4.client;" parent="1" vertex="1">
          <mxGeometry x="-1580" y="442" width="78" height="76" as="geometry" />
        </mxCell>
        <mxCell id="w-TVoxVjeNT14pDyaGlz-18" value="" style="edgeStyle=orthogonalEdgeStyle;html=1;endArrow=block;elbow=vertical;startArrow=none;endFill=1;strokeColor=#545B64;rounded=0;entryX=0;entryY=0.5;entryDx=0;entryDy=0;entryPerimeter=0;" parent="1" source="w-TVoxVjeNT14pDyaGlz-17" target="w-TVoxVjeNT14pDyaGlz-1" edge="1">
          <mxGeometry width="100" relative="1" as="geometry">
            <mxPoint x="-1470" y="370" as="sourcePoint" />
            <mxPoint x="-1370" y="370" as="targetPoint" />
            <Array as="points">
              <mxPoint x="-1360" y="480" />
              <mxPoint x="-1360" y="49" />
            </Array>
          </mxGeometry>
        </mxCell>
        <mxCell id="w-TVoxVjeNT14pDyaGlz-19" value="" style="edgeStyle=orthogonalEdgeStyle;html=1;endArrow=block;elbow=vertical;startArrow=none;endFill=1;strokeColor=#545B64;rounded=0;" parent="1" source="w-TVoxVjeNT14pDyaGlz-17" target="w-TVoxVjeNT14pDyaGlz-5" edge="1">
          <mxGeometry width="100" relative="1" as="geometry">
            <mxPoint x="-1470" y="520" as="sourcePoint" />
            <mxPoint x="-1370" y="520" as="targetPoint" />
            <Array as="points">
              <mxPoint x="-1450" y="479" />
              <mxPoint x="-1450" y="479" />
            </Array>
          </mxGeometry>
        </mxCell>
        <mxCell id="w-TVoxVjeNT14pDyaGlz-22" value="" style="edgeStyle=orthogonalEdgeStyle;html=1;endArrow=block;elbow=vertical;startArrow=none;endFill=1;strokeColor=#545B64;rounded=0;" parent="1" source="w-TVoxVjeNT14pDyaGlz-5" target="w-TVoxVjeNT14pDyaGlz-8" edge="1">
          <mxGeometry width="100" relative="1" as="geometry">
            <mxPoint x="-1120" y="674" as="sourcePoint" />
            <mxPoint x="-1020" y="674" as="targetPoint" />
            <Array as="points">
              <mxPoint x="-1110" y="480" />
              <mxPoint x="-1110" y="389" />
            </Array>
          </mxGeometry>
        </mxCell>
        <mxCell id="w-TVoxVjeNT14pDyaGlz-31" value="POST" style="edgeLabel;html=1;align=center;verticalAlign=middle;resizable=0;points=[];" parent="w-TVoxVjeNT14pDyaGlz-22" vertex="1" connectable="0">
          <mxGeometry x="0.5808" relative="1" as="geometry">
            <mxPoint x="-13" as="offset" />
          </mxGeometry>
        </mxCell>
        <mxCell id="w-TVoxVjeNT14pDyaGlz-23" value="" style="edgeStyle=orthogonalEdgeStyle;html=1;endArrow=block;elbow=vertical;startArrow=none;endFill=1;strokeColor=#545B64;rounded=0;" parent="1" source="w-TVoxVjeNT14pDyaGlz-8" target="w-TVoxVjeNT14pDyaGlz-9" edge="1">
          <mxGeometry width="100" relative="1" as="geometry">
            <mxPoint x="-820" y="644" as="sourcePoint" />
            <mxPoint x="-720" y="644" as="targetPoint" />
          </mxGeometry>
        </mxCell>
        <mxCell id="w-TVoxVjeNT14pDyaGlz-34" value="" style="edgeStyle=orthogonalEdgeStyle;html=1;endArrow=block;elbow=vertical;startArrow=none;endFill=1;strokeColor=#545B64;rounded=0;entryX=0;entryY=0.5;entryDx=0;entryDy=0;entryPerimeter=0;" parent="1" source="w-TVoxVjeNT14pDyaGlz-5" target="w-TVoxVjeNT14pDyaGlz-11" edge="1">
          <mxGeometry width="100" relative="1" as="geometry">
            <mxPoint x="-1100" y="500" as="sourcePoint" />
            <mxPoint x="-1000" y="500" as="targetPoint" />
            <Array as="points">
              <mxPoint x="-1110" y="479" />
              <mxPoint x="-1110" y="569" />
            </Array>
          </mxGeometry>
        </mxCell>
        <mxCell id="w-TVoxVjeNT14pDyaGlz-35" value="GET" style="edgeLabel;html=1;align=center;verticalAlign=middle;resizable=0;points=[];" parent="w-TVoxVjeNT14pDyaGlz-34" vertex="1" connectable="0">
          <mxGeometry x="0.3529" y="2" relative="1" as="geometry">
            <mxPoint x="18" y="2" as="offset" />
          </mxGeometry>
        </mxCell>
        <mxCell id="w-TVoxVjeNT14pDyaGlz-36" value="" style="edgeStyle=orthogonalEdgeStyle;html=1;endArrow=block;elbow=vertical;startArrow=none;endFill=1;strokeColor=#545B64;rounded=0;" parent="1" source="w-TVoxVjeNT14pDyaGlz-11" target="w-TVoxVjeNT14pDyaGlz-6" edge="1">
          <mxGeometry width="100" relative="1" as="geometry">
            <mxPoint x="-880" y="570" as="sourcePoint" />
            <mxPoint x="-780" y="570" as="targetPoint" />
          </mxGeometry>
        </mxCell>
        <mxCell id="w-TVoxVjeNT14pDyaGlz-37" value="" style="edgeStyle=orthogonalEdgeStyle;html=1;endArrow=block;elbow=vertical;startArrow=none;endFill=1;strokeColor=#545B64;rounded=0;dashed=1;" parent="1" edge="1">
          <mxGeometry width="100" relative="1" as="geometry">
            <mxPoint x="-1541" y="540" as="sourcePoint" />
            <mxPoint x="-761" y="470" as="targetPoint" />
            <Array as="points">
              <mxPoint x="-1541" y="660" />
              <mxPoint x="-761" y="660" />
            </Array>
          </mxGeometry>
        </mxCell>
        <mxCell id="w-TVoxVjeNT14pDyaGlz-38" value="pre-signed&amp;nbsp;&lt;br&gt;upload" style="edgeLabel;html=1;align=center;verticalAlign=middle;resizable=0;points=[];" parent="w-TVoxVjeNT14pDyaGlz-37" vertex="1" connectable="0">
          <mxGeometry x="-0.7751" y="-3" relative="1" as="geometry">
            <mxPoint x="88" as="offset" />
          </mxGeometry>
        </mxCell>
        <mxCell id="w-TVoxVjeNT14pDyaGlz-39" value="" style="edgeStyle=orthogonalEdgeStyle;html=1;endArrow=block;elbow=vertical;startArrow=none;endFill=1;strokeColor=#545B64;rounded=0;" parent="1" source="w-TVoxVjeNT14pDyaGlz-9" target="w-TVoxVjeNT14pDyaGlz-32" edge="1">
          <mxGeometry width="100" relative="1" as="geometry">
            <mxPoint x="-840" y="280" as="sourcePoint" />
            <mxPoint x="-740" y="280" as="targetPoint" />
            <Array as="points">
              <mxPoint x="-761" y="20" />
              <mxPoint x="-270" y="20" />
            </Array>
          </mxGeometry>
        </mxCell>
        <mxCell id="w-TVoxVjeNT14pDyaGlz-40" value="upload event" style="edgeLabel;html=1;align=center;verticalAlign=middle;resizable=0;points=[];" parent="w-TVoxVjeNT14pDyaGlz-39" vertex="1" connectable="0">
          <mxGeometry x="-0.4493" y="2" relative="1" as="geometry">
            <mxPoint as="offset" />
          </mxGeometry>
        </mxCell>
        <mxCell id="w-TVoxVjeNT14pDyaGlz-41" value="Prepare function" style="sketch=0;outlineConnect=0;fontColor=#232F3E;gradientColor=none;fillColor=#D45B07;strokeColor=none;dashed=0;verticalLabelPosition=bottom;verticalAlign=top;align=center;html=1;fontSize=12;fontStyle=0;aspect=fixed;pointerEvents=1;shape=mxgraph.aws4.lambda_function;" parent="1" vertex="1">
          <mxGeometry x="-300" y="110" width="50" height="50" as="geometry" />
        </mxCell>
        <mxCell id="w-TVoxVjeNT14pDyaGlz-42" value="&lt;b&gt;Amazon Transcribe&lt;/b&gt;" style="sketch=0;points=[[0,0,0],[0.25,0,0],[0.5,0,0],[0.75,0,0],[1,0,0],[0,1,0],[0.25,1,0],[0.5,1,0],[0.75,1,0],[1,1,0],[0,0.25,0],[0,0.5,0],[0,0.75,0],[1,0.25,0],[1,0.5,0],[1,0.75,0]];outlineConnect=0;fontColor=#232F3E;gradientColor=#4AB29A;gradientDirection=north;fillColor=#116D5B;strokeColor=#ffffff;dashed=0;verticalLabelPosition=bottom;verticalAlign=top;align=center;html=1;fontSize=12;fontStyle=0;aspect=fixed;shape=mxgraph.aws4.resourceIcon;resIcon=mxgraph.aws4.transcribe;" parent="1" vertex="1">
          <mxGeometry x="-449" y="272" width="78" height="78" as="geometry" />
        </mxCell>
        <mxCell id="w-TVoxVjeNT14pDyaGlz-43" value="" style="edgeStyle=orthogonalEdgeStyle;html=1;endArrow=none;elbow=vertical;startArrow=block;startFill=1;strokeColor=#545B64;rounded=0;exitX=0.5;exitY=0;exitDx=0;exitDy=0;exitPerimeter=0;" parent="1" source="w-TVoxVjeNT14pDyaGlz-6" target="w-TVoxVjeNT14pDyaGlz-41" edge="1">
          <mxGeometry width="100" relative="1" as="geometry">
            <mxPoint x="-640" y="270" as="sourcePoint" />
            <mxPoint x="-540" y="270" as="targetPoint" />
            <Array as="points">
              <mxPoint x="-651" y="135" />
            </Array>
          </mxGeometry>
        </mxCell>
        <mxCell id="w-TVoxVjeNT14pDyaGlz-45" value="Store media meta-data" style="edgeLabel;html=1;align=center;verticalAlign=middle;resizable=0;points=[];" parent="w-TVoxVjeNT14pDyaGlz-43" vertex="1" connectable="0">
          <mxGeometry x="0.1143" y="5" relative="1" as="geometry">
            <mxPoint x="-38" y="70" as="offset" />
          </mxGeometry>
        </mxCell>
        <mxCell id="w-TVoxVjeNT14pDyaGlz-49" value="Video" style="fillColor=none;strokeColor=#5A6C86;dashed=1;verticalAlign=top;fontStyle=0;fontColor=#5A6C86;" parent="1" vertex="1">
          <mxGeometry x="-240" y="220" width="220" height="320" as="geometry" />
        </mxCell>
        <mxCell id="w-TVoxVjeNT14pDyaGlz-50" value="Store analysis" style="sketch=0;outlineConnect=0;fontColor=#232F3E;gradientColor=none;fillColor=#D45B07;strokeColor=none;dashed=0;verticalLabelPosition=bottom;verticalAlign=top;align=center;html=1;fontSize=12;fontStyle=0;aspect=fixed;pointerEvents=1;shape=mxgraph.aws4.lambda_function;" parent="1" vertex="1">
          <mxGeometry x="-295" y="647" width="50" height="50" as="geometry" />
        </mxCell>
        <mxCell id="w-TVoxVjeNT14pDyaGlz-51" value="Extract audio insights" style="sketch=0;outlineConnect=0;fontColor=#232F3E;gradientColor=none;fillColor=#D45B07;strokeColor=none;dashed=0;verticalLabelPosition=bottom;verticalAlign=top;align=center;html=1;fontSize=12;fontStyle=0;aspect=fixed;pointerEvents=1;shape=mxgraph.aws4.lambda_function;" parent="1" vertex="1">
          <mxGeometry x="-435" y="522" width="50" height="50" as="geometry" />
        </mxCell>
        <mxCell id="w-TVoxVjeNT14pDyaGlz-52" value="&lt;b&gt;Amazon Rekognition&lt;/b&gt;" style="sketch=0;points=[[0,0,0],[0.25,0,0],[0.5,0,0],[0.75,0,0],[1,0,0],[0,1,0],[0.25,1,0],[0.5,1,0],[0.75,1,0],[1,1,0],[0,0.25,0],[0,0.5,0],[0,0.75,0],[1,0.25,0],[1,0.5,0],[1,0.75,0]];outlineConnect=0;fontColor=#232F3E;gradientColor=#4AB29A;gradientDirection=north;fillColor=#116D5B;strokeColor=#ffffff;dashed=0;verticalLabelPosition=bottom;verticalAlign=top;align=center;html=1;fontSize=12;fontStyle=0;aspect=fixed;shape=mxgraph.aws4.resourceIcon;resIcon=mxgraph.aws4.rekognition_2;" parent="1" vertex="1">
          <mxGeometry x="-169" y="272" width="78" height="78" as="geometry" />
        </mxCell>
        <mxCell id="w-TVoxVjeNT14pDyaGlz-53" value="Extract video insights" style="sketch=0;outlineConnect=0;fontColor=#232F3E;gradientColor=none;fillColor=#D45B07;strokeColor=none;dashed=0;verticalLabelPosition=bottom;verticalAlign=top;align=center;html=1;fontSize=12;fontStyle=0;aspect=fixed;pointerEvents=1;shape=mxgraph.aws4.lambda_function;" parent="1" vertex="1">
          <mxGeometry x="-155" y="420" width="50" height="50" as="geometry" />
        </mxCell>
        <mxCell id="w-TVoxVjeNT14pDyaGlz-55" value="" style="edgeStyle=orthogonalEdgeStyle;html=1;endArrow=block;elbow=vertical;startArrow=none;endFill=1;strokeColor=#545B64;rounded=0;entryX=0.5;entryY=0;entryDx=0;entryDy=0;" parent="1" target="w-TVoxVjeNT14pDyaGlz-49" edge="1">
          <mxGeometry width="100" relative="1" as="geometry">
            <mxPoint x="-275" y="180" as="sourcePoint" />
            <mxPoint x="-190" y="800" as="targetPoint" />
            <Array as="points">
              <mxPoint x="-275" y="200" />
              <mxPoint x="-130" y="200" />
            </Array>
          </mxGeometry>
        </mxCell>
        <mxCell id="w-TVoxVjeNT14pDyaGlz-56" value="" style="edgeStyle=orthogonalEdgeStyle;html=1;endArrow=block;elbow=vertical;startArrow=none;endFill=1;strokeColor=#545B64;rounded=0;entryX=0.5;entryY=0;entryDx=0;entryDy=0;" parent="1" target="w-TVoxVjeNT14pDyaGlz-48" edge="1">
          <mxGeometry width="100" relative="1" as="geometry">
            <mxPoint x="-275" y="180" as="sourcePoint" />
            <mxPoint x="-510" y="260" as="targetPoint" />
            <Array as="points">
              <mxPoint x="-275" y="200" />
              <mxPoint x="-410" y="200" />
            </Array>
          </mxGeometry>
        </mxCell>
        <mxCell id="w-TVoxVjeNT14pDyaGlz-57" value="" style="edgeStyle=orthogonalEdgeStyle;html=1;endArrow=block;elbow=vertical;startArrow=none;endFill=1;strokeColor=#545B64;rounded=0;exitX=0.5;exitY=1;exitDx=0;exitDy=0;" parent="1" source="w-TVoxVjeNT14pDyaGlz-48" target="w-TVoxVjeNT14pDyaGlz-50" edge="1">
          <mxGeometry width="100" relative="1" as="geometry">
            <mxPoint x="-430" y="770" as="sourcePoint" />
            <mxPoint x="-330" y="770" as="targetPoint" />
            <Array as="points">
              <mxPoint x="-410" y="630" />
              <mxPoint x="-270" y="630" />
            </Array>
          </mxGeometry>
        </mxCell>
        <mxCell id="w-TVoxVjeNT14pDyaGlz-58" value="" style="edgeStyle=orthogonalEdgeStyle;html=1;endArrow=block;elbow=vertical;startArrow=none;endFill=1;strokeColor=#545B64;rounded=0;exitX=0.5;exitY=1;exitDx=0;exitDy=0;" parent="1" source="w-TVoxVjeNT14pDyaGlz-49" target="w-TVoxVjeNT14pDyaGlz-50" edge="1">
          <mxGeometry width="100" relative="1" as="geometry">
            <mxPoint x="-210" y="740" as="sourcePoint" />
            <mxPoint x="-110" y="740" as="targetPoint" />
            <Array as="points">
              <mxPoint x="-130" y="630" />
              <mxPoint x="-270" y="630" />
            </Array>
          </mxGeometry>
        </mxCell>
        <mxCell id="w-TVoxVjeNT14pDyaGlz-59" value="" style="edgeStyle=orthogonalEdgeStyle;html=1;endArrow=block;elbow=vertical;startArrow=none;endFill=1;strokeColor=#545B64;rounded=0;" parent="1" source="w-TVoxVjeNT14pDyaGlz-50" edge="1">
          <mxGeometry width="100" relative="1" as="geometry">
            <mxPoint x="-340" y="790" as="sourcePoint" />
            <mxPoint x="-651" y="650" as="targetPoint" />
            <Array as="points">
              <mxPoint x="-651" y="672" />
            </Array>
          </mxGeometry>
        </mxCell>
        <mxCell id="h2d0-sY6WnEYNN3HaUmY-1" value="&lt;div&gt;&lt;b&gt;Amazon Bedrock&lt;/b&gt;&lt;/div&gt;&lt;div&gt;Claude&lt;br&gt;&lt;/div&gt;" style="sketch=0;points=[[0,0,0],[0.25,0,0],[0.5,0,0],[0.75,0,0],[1,0,0],[0,1,0],[0.25,1,0],[0.5,1,0],[0.75,1,0],[1,1,0],[0,0.25,0],[0,0.5,0],[0,0.75,0],[1,0.25,0],[1,0.5,0],[1,0.75,0]];outlineConnect=0;fontColor=#232F3E;gradientColor=#4AB29A;gradientDirection=north;fillColor=#116D5B;strokeColor=#ffffff;dashed=0;verticalLabelPosition=bottom;verticalAlign=top;align=center;html=1;fontSize=12;fontStyle=0;aspect=fixed;shape=mxgraph.aws4.resourceIcon;resIcon=mxgraph.aws4.sagemaker;" parent="1" vertex="1">
          <mxGeometry x="-449" y="392" width="78" height="78" as="geometry" />
        </mxCell>
      </root>
    </mxGraphModel>
  </diagram>
</mxfile>
